# xmcd
#
# Track frame offsets:
#	150
#	24590
#	54062
#	68025
#	81465
#	94617
#	109700
#	134692
#	147205
#	173625
#	192065
#
# Disc length: 2860 seconds
#
# Revision: 1
# Processed by: cddbd v1.5.1PL0 Copyright (c) Steve Scherf et al.
# Submitted via: audiograbber 1.83.01
#
DISCID=8d0b2a0b
DTITLE=Various Artist - Our definition of Jazz cd 2
DYEAR=2004
DGENRE=Jazz
TTITLE0=Dave Brubeck - Take five
TTITLE1=Lou Donaldson - Blues Walk
TTITLE2=Stan Getz - 'Round Midningt
TTITLE3=Julie London - Cry me a river
TTITLE4=Billie Holliday - You go to my head
TTITLE5=Sonny Rollins With The Modern Jazz Quartet - In a sentemental mood
TTITLE6=Lars Gullin - Danny's dream
TTITLE7=Monica Zetterlund&Bill Evans - Monicas Waltz (waltz for Debby)
TTITLE8=Tord Gustavsen Trio - Deep as love
TTITLE9=E.S.T.  - From Gagarins point of view
TTITLE10=Nils Petter Molvær - Kakonita
EXTD=YEAR: 2004
EXTT0=
EXTT1=
EXTT2=
EXTT3=
EXTT4=
EXTT5=
EXTT6=
EXTT7=
EXTT8=
EXTT9=
EXTT10=
PLAYORDER=
